HIERARCHY
ROOT Hips
{
	OFFSET 0.000000 0.000000 0.000000
	CHANNELS 6 Xposition Yposition Zposition Zrotation Yrotation Xrotation 
	JOINT LHipJoint
	{
		OFFSET 0.000000 0.000000 0.000000
		CHANNELS 3 Zrotation Yrotation Xrotation
		JOINT LeftUpLeg
		{
			OFFSET 1.363060 -1.794630 0.839290
			CHANNELS 3 Zrotation Yrotation Xrotation
			JOINT LeftLeg
			{
				OFFSET 2.448110 -6.726130 0.000000
				CHANNELS 3 Zrotation Yrotation Xrotation
				JOINT LeftFoot
				{
					OFFSET 2.562200 -7.039590 0.000000
					CHANNELS 3 Zrotation Yrotation Xrotation
					JOINT LeftToeBase
					{
						OFFSET 0.157640 -0.433110 2.322550
						CHANNELS 3 Zrotation Yrotation Xrotation
						End Site
						{
							OFFSET 0.000000 0.000000 0.000000
						}
					}
				}
			}
		}
	}
	JOINT RHipJoint
	{
		OFFSET 0.000000 0.000000 0.000000
		CHANNELS 3 Zrotation Yrotation Xrotation
		JOINT RightUpLeg
		{
			OFFSET -1.305520 -1.794630 0.839290
			CHANNELS 3 Zrotation Yrotation Xrotation
			JOINT RightLeg
			{
				OFFSET -2.542530 -6.985550 0.000000
				CHANNELS 3 Zrotation Yrotation Xrotation
				JOINT RightFoot
				{
					OFFSET -2.568260 -7.056230 0.000000
					CHANNELS 3 Zrotation Yrotation Xrotation
					JOINT RightToeBase
					{
						OFFSET -0.164730 -0.452590 2.363150
						CHANNELS 3 Zrotation Yrotation Xrotation
						End Site
						{
							OFFSET 0.000000 0.000000 0.000000
						}
					}
				}
			}
		}
	}
	JOINT LowerBack
	{
		OFFSET 0.000000 0.000000 0.000000
		CHANNELS 3 Zrotation Yrotation Xrotation
		JOINT Spine
		{
			OFFSET 0.028270 2.035590 -0.193380
			CHANNELS 3 Zrotation Yrotation Xrotation
			JOINT Spine1
			{
				OFFSET 0.056720 2.048850 -0.042750
				CHANNELS 3 Zrotation Yrotation Xrotation
				JOINT Neck
				{
					OFFSET 0.000000 0.000000 0.000000
					CHANNELS 3 Zrotation Yrotation Xrotation
					JOINT Neck1
					{
						OFFSET -0.054170 1.746240 0.172020
						CHANNELS 3 Zrotation Yrotation Xrotation
						JOINT Head
						{
							OFFSET 0.104070 1.761360 -0.123970
							CHANNELS 3 Zrotation Yrotation Xrotation
							End Site
							{
								OFFSET 0.000000 0.000000 0.000000
							}
						}
					}
				}
				JOINT LeftShoulder
				{
					OFFSET 0.000000 0.000000 0.000000
					CHANNELS 3 Zrotation Yrotation Xrotation
					JOINT LeftArm
					{
						OFFSET 3.362410 1.200890 -0.311210
						CHANNELS 3 Zrotation Yrotation Xrotation
						JOINT LeftForeArm
						{
							OFFSET 4.983000 -0.000000 -0.000000
							CHANNELS 3 Zrotation Yrotation Xrotation
							JOINT LeftHand
							{
								OFFSET 3.483560 -0.000000 -0.000000
								CHANNELS 3 Zrotation Yrotation Xrotation
								JOINT LeftFingerBase
								{
									OFFSET 0.000000 0.000000 0.000000
									CHANNELS 3 Zrotation Yrotation Xrotation
									JOINT LeftHandIndex1
									{
										OFFSET 0.715260 -0.000000 -0.000000
										CHANNELS 3 Zrotation Yrotation Xrotation
										End Site
										{
											OFFSET 0.000000 0.000000 0.000000
										}
									}
								}
								JOINT LThumb
								{
									OFFSET 0.000000 0.000000 0.000000
									CHANNELS 3 Zrotation Yrotation Xrotation
									End Site
									{
										OFFSET 0.000000 0.000000 0.000000
									}
								}
							}
						}
					}
				}
				JOINT RightShoulder
				{
					OFFSET 0.000000 0.000000 0.000000
					CHANNELS 3 Zrotation Yrotation Xrotation
					JOINT RightArm
					{
						OFFSET -3.136600 1.374050 -0.404650
						CHANNELS 3 Zrotation Yrotation Xrotation
						JOINT RightForeArm
						{
							OFFSET -5.241900 -0.000000 -0.000000
							CHANNELS 3 Zrotation Yrotation Xrotation
							JOINT RightHand
							{
								OFFSET -3.444170 -0.000000 -0.000000
								CHANNELS 3 Zrotation Yrotation Xrotation
								JOINT RightFingerBase
								{
									OFFSET 0.000000 0.000000 0.000000
									CHANNELS 3 Zrotation Yrotation Xrotation
									JOINT RightHandIndex1
									{
										OFFSET -0.622530 -0.000000 -0.000000
										CHANNELS 3 Zrotation Yrotation Xrotation
										End Site
										{
											OFFSET 0.000000 0.000000 0.000000
										}
									}
								}
								JOINT RThumb
								{
									OFFSET 0.000000 0.000000 0.000000
									CHANNELS 3 Zrotation Yrotation Xrotation
									End Site
									{
										OFFSET 0.000000 0.000000 0.000000
									}
								}
							}
						}
					}
				}
			}
		}
	}
}
MOTION
Frames: 10
Frame Time: 0.008333
-25.911155 17.299015 -0.574765 119.728415 88.431308 116.518859 4.463033 0.849809 0.588936 -32.529808 -13.776843 5.798158 -1.359680 8.876315 24.545888 -3.913708 16.702989 -19.039725 0.017600 0.857100 2.355700 -6.843772 1.601778 -1.915896 27.267538 15.039839 -13.300002 -6.311626 -18.113823 51.298712 2.777579 -13.882356 -14.419915 -3.440200 11.375700 -33.557600 -6.335144 0.892325 5.212937 1.446962 1.571335 1.787849 -5.087389 0.197040 4.126466 8.538126 3.553337 -0.232616 5.109237 4.042955 15.268340 -4.691600 3.482100 4.943100 7.074844 2.596377 -0.538804 -98.828380 -8.673616 44.882502 12.552138 -13.921071 -2.882194 -2.657498 -3.211204 2.081832 18.159006 6.874493 3.840700 -7.125000 0.000000 0.000000 -5.560600 40.818500 0.575400 -8.959034 -3.094825 0.502110 108.355177 1.501901 28.344575 -12.554574 18.351408 -3.444598 1.107737 2.324880 -14.249924 -14.945246 3.675704 -0.481900 7.125000 0.000000 0.000000 7.705500 -28.262900 3.164400 
-25.831281 17.307890 -0.584224 116.638309 88.437184 113.511263 4.479821 0.903260 0.614724 -32.731319 -13.787496 6.468048 -1.484518 8.585751 23.828569 -3.998712 16.980853 -19.230602 0.019900 0.911100 2.504400 -6.823565 1.630305 -1.914247 27.042607 15.106172 -14.439954 -6.275117 -18.199290 51.233991 2.797573 -13.928836 -14.275161 -3.416400 11.340400 -33.436800 -6.408179 0.838443 5.231913 1.455668 1.487433 1.775892 -5.042378 0.151884 4.096839 8.490488 3.463196 -0.363040 5.083285 3.926514 15.270562 -4.695500 3.418000 4.965300 6.976237 2.713950 -0.540867 -98.686642 -8.299231 44.292114 12.297481 -13.522544 -2.719158 -2.675283 -3.151311 2.504399 18.025935 6.856534 3.790400 -7.125000 0.000000 0.000000 -5.673400 40.741900 0.597900 -8.931201 -3.196790 0.488642 108.328062 1.327213 28.158691 -12.520034 18.310532 -3.426078 1.110173 2.319884 -14.116961 -14.933082 3.665649 -0.479000 7.125000 0.000000 0.000000 7.718100 -28.271400 3.168200 
-25.745452 17.316298 -0.593216 113.628953 88.449254 110.590094 4.493739 0.959097 0.640482 -32.906705 -13.752238 7.148694 -1.608680 8.282507 23.085415 -4.082229 17.244394 -19.387578 0.022000 0.957700 2.632500 -6.795974 1.662897 -1.911220 26.796611 15.272964 -15.504863 -6.137751 -18.207221 50.832798 2.770852 -13.785660 -13.938552 -3.456500 11.399700 -33.640000 -6.463620 0.788939 5.253051 1.464361 1.410077 1.766885 -5.000949 0.112146 4.078701 8.441505 3.385235 -0.520754 5.107123 3.812937 15.284304 -4.670800 3.357500 4.997100 6.872382 2.833797 -0.545065 -98.546236 -7.906328 43.540376 12.053192 -13.132362 -2.559016 -2.675207 -3.121362 2.915737 17.831127 6.968476 3.782300 -7.125000 0.000000 0.000000 -5.879600 40.825500 0.607600 -8.897464 -3.300629 0.476485 108.291253 1.181312 27.929638 -12.459448 18.218326 -3.388426 1.114193 2.306822 -13.980725 -14.899705 3.674795 -0.483600 7.125000 0.000000 0.000000 7.745800 -28.251500 3.183400 
-25.654835 17.323888 -0.601507 109.565395 88.494812 106.600099 4.521339 1.013260 0.659622 -33.058929 -13.629276 7.841082 -1.728505 7.969193 22.331306 -4.168042 17.507318 -19.520329 0.022800 0.975300 2.680900 -6.749518 1.695915 -1.902757 26.540505 15.552586 -16.474713 -5.908402 -18.144803 50.125096 2.723323 -13.556698 -13.481728 -3.533600 11.512500 -34.028400 -6.493574 0.753614 5.303061 1.474570 1.350879 1.764099 -4.955378 0.082608 4.058466 8.403239 3.338952 -0.673870 5.164662 3.731540 15.284711 -4.630700 3.312000 5.022700 6.766199 2.950918 -0.547665 -98.403668 -7.485982 42.635692 11.815438 -12.746513 -2.400434 -2.677744 -3.094831 3.385365 17.647157 7.108763 3.788000 -7.125000 0.000000 0.000000 -6.082300 40.945800 0.610700 -8.855127 -3.405955 0.467119 108.239481 1.073017 27.684367 -12.376837 18.076887 -3.333509 1.118456 2.286603 -13.840188 -14.844658 3.691811 -0.491900 7.125000 0.000000 0.000000 7.790400 -28.215900 3.208600 
-25.558962 17.330895 -0.608630 105.265329 88.563566 102.353833 4.551825 1.068701 0.676206 -33.165090 -13.431958 8.546678 -1.842195 7.648701 21.572904 -4.258649 17.770041 -19.608884 0.021700 0.950900 2.613700 -6.695565 1.728358 -1.893652 26.303256 15.906843 -17.327313 -5.598621 -18.013430 49.150145 2.668193 -13.318730 -13.088536 -3.578100 11.576700 -34.250400 -6.491024 0.725740 5.374242 1.489377 1.301537 1.769333 -4.904336 0.059305 4.042493 8.375820 3.327905 -0.804429 5.243384 3.692146 15.269537 -4.582200 3.285900 5.036400 6.661068 3.068969 -0.547518 -98.259108 -7.029386 41.631923 11.585024 -12.372240 -2.246319 -2.689529 -3.069329 3.908560 17.504519 7.260172 3.807900 -7.125000 0.000000 0.000000 -6.246300 41.086100 0.605600 -8.805509 -3.515279 0.461200 108.168112 0.994175 27.425211 -12.280046 17.900476 -3.266261 1.122239 2.263897 -13.690672 -14.783339 3.693443 -0.496100 7.125000 0.000000 0.000000 7.841700 -28.194000 3.234300 
-25.457368 17.337668 -0.614002 101.391512 88.663737 98.494748 4.578630 1.132804 0.695800 -33.207927 -13.175951 9.288068 -1.949290 7.320837 20.812464 -4.351121 18.021995 -19.647595 0.019500 0.902700 2.481100 -6.642601 1.760183 -1.890228 26.123025 16.286707 -18.031943 -5.227186 -17.816243 47.957572 2.649817 -13.223376 -12.804121 -3.564600 11.557400 -34.183600 -6.439675 0.702753 5.473418 1.510776 1.258864 1.785875 -4.854155 0.042055 4.031097 8.373244 3.345855 -0.883920 5.318197 3.691174 15.222486 -4.543600 3.275500 5.022400 6.561588 3.188254 -0.542497 -98.110716 -6.537614 40.585284 11.363662 -12.016726 -2.099901 -2.707663 -3.048413 4.464297 17.394881 7.429493 3.843500 -7.125000 0.000000 0.000000 -6.381700 41.255300 0.592100 -8.748887 -3.629710 0.460244 108.078475 0.935130 27.143378 -12.175865 17.702389 -3.191496 1.124711 2.241204 -13.525783 -14.721003 3.669138 -0.492300 7.125000 0.000000 0.000000 7.897000 -28.199400 3.256400 
-25.350870 17.344558 -0.617622 97.291645 88.807614 94.385872 4.609509 1.201342 0.714915 -33.182204 -12.863212 10.057809 -2.050930 6.982869 20.042736 -4.443111 18.256858 -19.640065 0.017700 0.859400 2.362000 -6.584124 1.786863 -1.889185 26.005575 16.670647 -18.615920 -4.812242 -17.564905 46.599860 2.696444 -13.368339 -12.668544 -3.487500 11.445300 -33.796800 -6.323336 0.688906 5.587461 1.539127 1.230138 1.810850 -4.807444 0.033120 4.018124 8.385608 3.388828 -0.902554 5.386194 3.726757 15.151337 -4.513300 3.280500 4.981500 6.469914 3.308767 -0.532913 -97.960726 -6.016442 39.531048 11.150805 -11.679768 -1.961625 -2.730110 -3.033389 5.054530 17.307756 7.623608 3.895100 -7.125000 0.000000 0.000000 -6.501500 41.460700 0.570300 -8.687817 -3.750012 0.463548 107.972971 0.884500 26.838232 -12.067455 17.490388 -3.111189 1.130398 2.216892 -13.386852 -14.676244 3.656370 -0.493400 7.125000 0.000000 0.000000 7.934800 -28.189900 3.274100 
-25.239000 17.351447 -0.619724 92.407524 88.987599 89.482256 4.650006 1.267085 0.729400 -33.104258 -12.507616 10.859921 -2.150450 6.626685 19.241376 -4.537729 18.483715 -19.586649 0.017000 0.842800 2.316300 -6.515468 1.800733 -1.885803 25.934900 17.032174 -19.117070 -4.373765 -17.273248 45.136061 2.817778 -13.784043 -12.689225 -3.346000 11.235200 -33.077200 -6.148537 0.683097 5.697810 1.573540 1.215409 1.839459 -4.761390 0.030468 3.999628 8.403215 3.449504 -0.865910 5.446840 3.791881 15.073883 -4.488400 3.300000 4.923800 6.386988 3.432334 -0.520637 -97.811816 -5.468014 38.500401 10.944748 -11.359267 -1.831001 -2.756106 -3.027243 5.681247 17.237690 7.857515 3.967400 -7.125000 0.000000 0.000000 -6.615100 41.720500 0.537800 -8.624593 -3.877554 0.469463 107.855433 0.832335 26.491633 -11.956185 17.268396 -3.025537 1.142471 2.190831 -13.260549 -14.667724 3.664537 -0.502900 7.125000 0.000000 0.000000 7.938100 -28.155600 3.282000 
-25.121641 17.358454 -0.620074 85.888559 89.194454 82.955573 4.705200 1.315929 0.730855 -32.987853 -12.112112 11.702733 -2.252286 6.238389 18.373971 -4.640033 18.715366 -19.484222 0.017800 0.861200 2.366900 -6.433402 1.788358 -1.871262 25.893473 17.366950 -19.576148 -3.928409 -16.958751 43.624173 2.999718 -14.425028 -12.892751 -3.142900 10.922800 -32.020000 -5.928383 0.682383 5.775273 1.612256 1.214264 1.867958 -4.715061 0.029761 3.987696 8.424459 3.515183 -0.803525 5.497279 3.871979 15.017590 -4.467900 3.330700 4.870100 6.313750 3.560705 -0.507981 -97.655522 -4.899716 37.518363 10.742417 -11.053125 -1.708477 -2.781953 -3.021540 6.345608 17.165354 8.094435 4.039700 -7.125000 0.000000 0.000000 -6.735200 41.985200 0.503500 -8.561660 -4.015382 0.475090 107.733300 0.768139 26.110880 -11.846282 17.048105 -2.938661 1.161474 2.163998 -13.148175 -14.699919 3.698458 -0.522200 7.125000 0.000000 0.000000 7.902700 -28.092300 3.279100 
-24.998911 17.364176 -0.619023 77.386106 89.382984 74.443446 4.769650 1.330988 0.711888 -32.878700 -11.668615 12.626963 -2.359220 5.803372 17.407319 -4.751989 18.963367 -19.338848 0.019700 0.906600 2.491900 -6.347142 1.730666 -1.837553 25.850981 17.664878 -19.997992 -3.491183 -16.635394 42.119790 3.207446 -15.177670 -13.311511 -2.883100 10.503300 -30.622500 -5.705143 0.683985 5.847066 1.650394 1.223388 1.892807 -4.671942 0.026452 3.964755 8.444798 3.584088 -0.722531 5.557392 3.960159 14.994857 -4.438800 3.371700 4.828600 6.249805 3.692819 -0.496060 -97.475328 -4.308868 36.601930 10.538280 -10.754391 -1.593636 -2.807486 -2.998446 7.044284 17.087362 8.257568 4.078800 -7.125000 0.000000 0.000000 -6.846400 42.155500 0.483000 -8.504883 -4.167308 0.478800 107.620113 0.672786 25.702835 -11.742709 16.842741 -2.856243 1.184439 2.138204 -13.047320 -14.759684 3.747716 -0.547100 7.125000 0.000000 0.000000 7.841600 -28.013300 3.268000 
